<?xml version="1.0" encoding="UTF-8"?>
<svg width="684px" height="98px" viewBox="0 0 684 98" version="1.1" xmlns="http://www.w3.org/2000/svg" xmlns:xlink="http://www.w3.org/1999/xlink">
    <title>Yummy Lingo</title>
    <defs>
        <path d="M41.439,75.2421 C40.624,75.4621 39.365,75.6811 37.661,75.9001 C35.958,76.1201 34.291,76.2301 32.662,76.2301 C29.255,76.2301 26.6999,75.6811 24.9964,74.5841 C23.293,73.4141 22.4412,71.0001 22.4412,67.3431 L22.4412,52.5311 C20.5896,49.8251 18.5899,46.8261 16.4421,43.5351 C14.2943,40.2431 12.1834,36.8791 10.1097,33.4411 C8.0359,30.0031 6.1102,26.6391 4.3327,23.3471 C2.5552,19.9831 1.111,16.91111 0,14.13111 C0.9628,12.81511 2.2589,11.6081 3.8883,10.5111 C5.5918,9.414096 7.6656,8.8651 10.1097,8.8651 C12.9981,8.8651 15.3311,9.450105 17.1087,10.6201 C18.9603,11.7911 20.7007,13.9851 22.3301,17.2031 L31.551,35.5261 L32.218,35.5261 C33.255,33.2581 34.143,31.2101 34.884,29.3821 C35.699,27.4801 36.476,25.6151 37.217,23.7861 C37.958,21.8841 38.735,19.9461 39.55,17.9711 C40.365,15.9231 41.29,13.58311 42.327,10.95011 C43.66,10.29111 45.142,9.779096 46.771,9.414096 C48.4,9.048096 49.956,8.8651 51.437,8.8651 C54.029,8.8651 56.214,9.560107 57.992,10.95011 C59.843,12.26611 60.769,14.2781 60.769,16.9841 C60.769,17.8621 60.584,18.9221 60.214,20.1661 C59.843,21.4091 58.992,23.3111 57.658,25.8711 C56.325,28.3581 54.363,31.7591 51.77,36.0741 C49.252,40.3901 45.808,46.0221 41.439,52.9701 L41.439,75.2421 Z" id="path-1"></path>
        <filter x="-2.5%" y="-2.2%" width="104.9%" height="104.5%" filterUnits="objectBoundingBox" id="filter-2">
            <feGaussianBlur stdDeviation="1" in="SourceAlpha" result="shadowBlurInner1"></feGaussianBlur>
            <feOffset dx="0" dy="1" in="shadowBlurInner1" result="shadowOffsetInner1"></feOffset>
            <feComposite in="shadowOffsetInner1" in2="SourceAlpha" operator="arithmetic" k2="-1" k3="1" result="shadowInnerInner1"></feComposite>
            <feColorMatrix values="0 0 0 0 0   0 0 0 0 0   0 0 0 0 0  0 0 0 0.5 0" type="matrix" in="shadowInnerInner1"></feColorMatrix>
        </filter>
        <path d="M66.2889,23.1281 C67.0299,22.9081 68.1779,22.6891 69.7329,22.4701 C71.3619,22.2501 73.0289,22.1401 74.7319,22.1401 C76.3619,22.1401 77.8059,22.2501 79.0649,22.4701 C80.3979,22.6891 81.5089,23.1281 82.3979,23.7861 C83.2869,24.4441 83.9529,25.3591 84.3979,26.5291 C84.9159,27.6261 85.1749,29.0891 85.1749,30.9181 L85.1749,54.5061 C85.1749,57.5051 85.9159,59.6631 87.3969,60.9791 C88.8779,62.2231 91.0259,62.8441 93.8409,62.8441 C95.5439,62.8441 96.9139,62.6981 97.9509,62.4061 C99.0619,62.1131 99.9139,61.8201 100.506,61.5281 L100.506,23.1281 C101.247,22.9081 102.395,22.6891 103.95,22.4701 C105.58,22.2501 107.246,22.1401 108.95,22.1401 C110.579,22.1401 112.023,22.2501 113.282,22.4701 C114.616,22.6891 115.726,23.1281 116.615,23.7861 C117.504,24.4441 118.171,25.3591 118.615,26.5291 C119.133,27.6261 119.393,29.0891 119.393,30.9181 L119.393,64.2711 C119.393,67.9281 117.837,70.6711 114.727,72.4991 C112.134,74.1081 109.024,75.3151 105.395,76.1201 C101.84,76.9981 97.9509,77.4361 93.7299,77.4361 C89.7299,77.4361 86.0269,76.9981 82.6199,76.1201 C79.2869,75.2421 76.3989,73.8891 73.9549,72.0601 C71.5109,70.2321 69.6219,67.8911 68.2889,65.0391 C66.9559,62.1131 66.2889,58.6021 66.2889,54.5061 L66.2889,23.1281 Z" id="path-3"></path>
        <filter x="-2.8%" y="-2.7%" width="105.6%" height="105.4%" filterUnits="objectBoundingBox" id="filter-4">
            <feGaussianBlur stdDeviation="1" in="SourceAlpha" result="shadowBlurInner1"></feGaussianBlur>
            <feOffset dx="0" dy="1" in="shadowBlurInner1" result="shadowOffsetInner1"></feOffset>
            <feComposite in="shadowOffsetInner1" in2="SourceAlpha" operator="arithmetic" k2="-1" k3="1" result="shadowInnerInner1"></feComposite>
            <feColorMatrix values="0 0 0 0 0   0 0 0 0 0   0 0 0 0 0  0 0 0 0.5 0" type="matrix" in="shadowInnerInner1"></feColorMatrix>
        </filter>
        <path d="M156.835,20.7141 C159.872,20.7141 162.834,21.1531 165.723,22.0311 C168.685,22.8351 171.241,24.0791 173.388,25.7611 C175.61,24.2981 178.091,23.0911 180.832,22.1401 C183.646,21.1901 187.016,20.7141 190.941,20.7141 C193.756,20.7141 196.496,21.0801 199.162,21.8111 C201.903,22.5431 204.31,23.7131 206.384,25.3221 C208.532,26.8581 210.235,28.9431 211.494,31.5761 C212.753,34.1361 213.383,37.2811 213.383,41.0111 L213.383,75.5711 C212.642,75.7911 211.457,76.0101 209.828,76.2301 C208.272,76.4491 206.643,76.5591 204.939,76.5591 C203.31,76.5591 201.829,76.4491 200.496,76.2301 C199.237,76.0101 198.163,75.5711 197.274,74.9131 C196.385,74.2551 195.681,73.3771 195.163,72.2801 C194.719,71.1101 194.496,69.6101 194.496,67.7821 L194.496,41.5601 C194.496,39.3661 193.867,37.7931 192.608,36.8421 C191.349,35.8181 189.645,35.3061 187.497,35.3061 C186.461,35.3061 185.35,35.5621 184.165,36.0741 C182.98,36.5131 182.091,36.9881 181.498,37.5001 C181.572,37.7931 181.609,38.0861 181.609,38.3781 C181.609,38.5981 181.609,38.8171 181.609,39.0361 L181.609,75.5711 C180.795,75.7911 179.573,76.0101 177.943,76.2301 C176.388,76.4491 174.796,76.5591 173.166,76.5591 C171.537,76.5591 170.056,76.4491 168.722,76.2301 C167.463,76.0101 166.389,75.5711 165.501,74.9131 C164.612,74.2551 163.908,73.3771 163.39,72.2801 C162.945,71.1101 162.723,69.6101 162.723,67.7821 L162.723,41.5601 C162.723,39.3661 162.02,37.7931 160.612,36.8421 C159.279,35.8181 157.65,35.3061 155.724,35.3061 C154.391,35.3061 153.243,35.5261 152.28,35.9641 C151.317,36.3301 150.503,36.6961 149.836,37.0621 L149.836,75.5711 C149.096,75.7911 147.911,76.0101 146.281,76.2301 C144.726,76.4491 143.096,76.5591 141.393,76.5591 C139.764,76.5591 138.282,76.4491 136.949,76.2301 C135.69,76.0101 134.616,75.5711 133.727,74.9131 C132.839,74.2551 132.135,73.3771 131.617,72.2801 C131.172,71.1101 130.95,69.6101 130.95,67.7821 L130.95,34.6481 C130.95,32.6731 131.357,31.1001 132.172,29.9301 C133.061,28.7601 134.246,27.6631 135.727,26.6391 C138.245,24.8831 141.356,23.4571 145.059,22.3601 C148.836,21.2631 152.762,20.7141 156.835,20.7141 Z" id="path-5"></path>
        <filter x="-1.8%" y="-2.7%" width="103.6%" height="105.4%" filterUnits="objectBoundingBox" id="filter-6">
            <feGaussianBlur stdDeviation="1" in="SourceAlpha" result="shadowBlurInner1"></feGaussianBlur>
            <feOffset dx="0" dy="1" in="shadowBlurInner1" result="shadowOffsetInner1"></feOffset>
            <feComposite in="shadowOffsetInner1" in2="SourceAlpha" operator="arithmetic" k2="-1" k3="1" result="shadowInnerInner1"></feComposite>
            <feColorMatrix values="0 0 0 0 0   0 0 0 0 0   0 0 0 0 0  0 0 0 0.5 0" type="matrix" in="shadowInnerInner1"></feColorMatrix>
        </filter>
        <path d="M250.789,20.7141 C253.825,20.7141 256.788,21.1531 259.676,22.0311 C262.639,22.8351 265.194,24.0791 267.342,25.7611 C269.564,24.2981 272.045,23.0911 274.785,22.1401 C277.6,21.1901 280.97,20.7141 284.895,20.7141 C287.709,20.7141 290.45,21.0801 293.116,21.8111 C295.856,22.5431 298.263,23.7131 300.337,25.3221 C302.485,26.8581 304.189,28.9431 305.448,31.5761 C306.707,34.1361 307.336,37.2811 307.336,41.0111 L307.336,75.5711 C306.596,75.7911 305.411,76.0101 303.781,76.2301 C302.226,76.4491 300.596,76.5591 298.893,76.5591 C297.264,76.5591 295.782,76.4491 294.449,76.2301 C293.19,76.0101 292.116,75.5711 291.227,74.9131 C290.339,74.2551 289.635,73.3771 289.117,72.2801 C288.672,71.1101 288.45,69.6101 288.45,67.7821 L288.45,41.5601 C288.45,39.3661 287.821,37.7931 286.561,36.8421 C285.302,35.8181 283.599,35.3061 281.451,35.3061 C280.414,35.3061 279.303,35.5621 278.118,36.0741 C276.933,36.5131 276.044,36.9881 275.452,37.5001 C275.526,37.7931 275.563,38.0861 275.563,38.3781 C275.563,38.5981 275.563,38.8171 275.563,39.0361 L275.563,75.5711 C274.748,75.7911 273.526,76.0101 271.897,76.2301 C270.342,76.4491 268.749,76.5591 267.12,76.5591 C265.49,76.5591 264.009,76.4491 262.676,76.2301 C261.417,76.0101 260.343,75.5711 259.454,74.9131 C258.565,74.2551 257.862,73.3771 257.343,72.2801 C256.899,71.1101 256.677,69.6101 256.677,67.7821 L256.677,41.5601 C256.677,39.3661 255.973,37.7931 254.566,36.8421 C253.233,35.8181 251.603,35.3061 249.678,35.3061 C248.345,35.3061 247.197,35.5261 246.234,35.9641 C245.271,36.3301 244.456,36.6961 243.79,37.0621 L243.79,75.5711 C243.049,75.7911 241.864,76.0101 240.235,76.2301 C238.679,76.4491 237.05,76.5591 235.347,76.5591 C233.717,76.5591 232.236,76.4491 230.903,76.2301 C229.644,76.0101 228.57,75.5711 227.681,74.9131 C226.792,74.2551 226.089,73.3771 225.57,72.2801 C225.126,71.1101 224.904,69.6101 224.904,67.7821 L224.904,34.6481 C224.904,32.6731 225.311,31.1001 226.126,29.9301 C227.014,28.7601 228.199,27.6631 229.681,26.6391 C232.199,24.8831 235.309,23.4571 239.013,22.3601 C242.79,21.2631 246.715,20.7141 250.789,20.7141 Z" id="path-7"></path>
        <filter x="-1.8%" y="-2.7%" width="103.6%" height="105.4%" filterUnits="objectBoundingBox" id="filter-8">
            <feGaussianBlur stdDeviation="1" in="SourceAlpha" result="shadowBlurInner1"></feGaussianBlur>
            <feOffset dx="0" dy="1" in="shadowBlurInner1" result="shadowOffsetInner1"></feOffset>
            <feComposite in="shadowOffsetInner1" in2="SourceAlpha" operator="arithmetic" k2="-1" k3="1" result="shadowInnerInner1"></feComposite>
            <feColorMatrix values="0 0 0 0 0   0 0 0 0 0   0 0 0 0 0  0 0 0 0.5 0" type="matrix" in="shadowInnerInner1"></feColorMatrix>
        </filter>
        <path d="M325.673,62.0761 C324.858,60.2481 323.97,58.2001 323.007,55.9321 C322.118,53.6651 321.155,51.0681 320.118,48.1431 C319.155,45.2171 318.119,41.8891 317.008,38.1591 C315.971,34.3551 314.86,30.0031 313.675,25.1031 C314.712,24.0791 316.082,23.2011 317.785,22.4701 C319.563,21.6651 321.488,21.2631 323.562,21.2631 C326.154,21.2631 328.302,21.8111 330.006,22.9081 C331.709,23.9321 332.968,25.9071 333.783,28.8331 L342.559,59.0041 L343.004,59.0041 C343.893,56.5181 344.744,53.8111 345.559,50.8861 C346.448,47.9601 347.3,44.9611 348.114,41.8891 C348.929,38.7441 349.67,35.6351 350.336,32.5631 C351.077,29.4181 351.706,26.3461 352.225,23.3471 C354.891,21.9581 357.817,21.2631 361.001,21.2631 C363.594,21.2631 365.741,21.8111 367.445,22.9081 C369.148,24.0061 370,25.9071 370,28.6141 C370,30.5881 369.741,32.8921 369.222,35.5261 C368.704,38.0861 368,40.8281 367.112,43.7541 C366.297,46.6801 365.297,49.7151 364.112,52.8601 C363.001,55.9321 361.816,58.9681 360.557,61.9671 C359.298,64.9661 358.002,67.8181 356.669,70.5241 C355.335,73.1581 354.039,75.5351 352.78,77.6561 C350.706,81.2401 348.781,84.1661 347.003,86.4331 C345.226,88.7001 343.522,90.4561 341.893,91.6991 C340.264,93.0161 338.634,93.8941 337.005,94.3321 C335.375,94.8441 333.672,95.1001 331.894,95.1001 C328.784,95.1001 326.266,94.1861 324.34,92.3581 C322.414,90.5291 321.266,88.1521 320.896,85.2261 C323.266,83.3981 325.636,81.3501 328.006,79.0821 C330.376,76.8881 332.524,74.6201 334.45,72.2801 C333.19,71.9141 331.82,71.0731 330.339,69.7561 C328.932,68.3671 327.376,65.8071 325.673,62.0761 Z" id="path-9"></path>
        <filter x="-2.7%" y="-2.0%" width="105.3%" height="104.1%" filterUnits="objectBoundingBox" id="filter-10">
            <feGaussianBlur stdDeviation="1" in="SourceAlpha" result="shadowBlurInner1"></feGaussianBlur>
            <feOffset dx="0" dy="1" in="shadowBlurInner1" result="shadowOffsetInner1"></feOffset>
            <feComposite in="shadowOffsetInner1" in2="SourceAlpha" operator="arithmetic" k2="-1" k3="1" result="shadowInnerInner1"></feComposite>
            <feColorMatrix values="0 0 0 0 0   0 0 0 0 0   0 0 0 0 0  0 0 0 0.5 0" type="matrix" in="shadowInnerInner1"></feColorMatrix>
        </filter>
        <path d="M422.787,78.3361 C419.602,78.3361 417.084,77.4221 415.233,75.5931 C413.381,73.7641 412.455,71.2781 412.455,68.1321 L412.455,11.4101 C413.27,11.2641 414.566,11.0811 416.343,10.8621 C418.121,10.5691 419.8239,10.4231 421.4539,10.4231 C423.1569,10.4231 424.6389,10.5691 425.8979,10.8621 C427.2309,11.0811 428.342,11.5201 429.231,12.1781 C430.119,12.8361 430.7859,13.7511 431.2299,14.9211 C431.6749,16.0911 431.897,17.6271 431.897,19.5291 L431.897,62.8661 L457.3379,62.8661 C457.8559,63.6711 458.3369,64.7681 458.7819,66.1581 C459.2259,67.4741 459.4479,68.8641 459.4479,70.3271 C459.4479,73.2521 458.8189,75.3371 457.5599,76.5801 C456.3009,77.7511 454.634,78.3361 452.561,78.3361 L422.787,78.3361 Z" id="path-11"></path>
        <filter x="-3.2%" y="-2.2%" width="106.4%" height="104.4%" filterUnits="objectBoundingBox" id="filter-12">
            <feGaussianBlur stdDeviation="1" in="SourceAlpha" result="shadowBlurInner1"></feGaussianBlur>
            <feOffset dx="0" dy="1" in="shadowBlurInner1" result="shadowOffsetInner1"></feOffset>
            <feComposite in="shadowOffsetInner1" in2="SourceAlpha" operator="arithmetic" k2="-1" k3="1" result="shadowInnerInner1"></feComposite>
            <feColorMatrix values="0 0 0 0 0   0 0 0 0 0   0 0 0 0 0  0 0 0 0.5 0" type="matrix" in="shadowInnerInner1"></feColorMatrix>
        </filter>
        <path d="M467.525,9.8741 C467.525,7.0951 468.45,4.7541 470.302,2.8521 C472.228,0.9511 474.746,-2.84217094e-14 477.856,-2.84217094e-14 C480.967,-2.84217094e-14 483.448,0.9511 485.3,2.8521 C487.225,4.7541 488.188,7.0951 488.188,9.8741 C488.188,12.6541 487.225,14.9941 485.3,16.8961 C483.448,18.7981 480.967,19.7481 477.856,19.7481 C474.746,19.7481 472.228,18.7981 470.302,16.8961 C468.45,14.9941 467.525,12.6541 467.525,9.8741 Z M487.299,77.8971 C486.485,78.0431 485.263,78.2261 483.633,78.4461 C482.078,78.7381 480.486,78.8841 478.856,78.8841 C477.227,78.8841 475.746,78.7751 474.412,78.5551 C473.153,78.3361 472.079,77.8971 471.191,77.2391 C470.302,76.5801 469.598,75.7031 469.08,74.6061 C468.635,73.4351 468.413,71.9361 468.413,70.1071 L468.413,25.4541 C469.228,25.3071 470.413,25.1241 471.968,24.9051 C473.598,24.6121 475.227,24.4661 476.857,24.4661 C478.486,24.4661 479.93,24.5761 481.189,24.7951 C482.522,25.0151 483.633,25.4541 484.522,26.1121 C485.411,26.7701 486.077,27.6841 486.522,28.8551 C487.04,29.9521 487.299,31.4151 487.299,33.2431 L487.299,77.8971 Z" id="path-13"></path>
        <filter x="-7.3%" y="-1.9%" width="114.5%" height="103.8%" filterUnits="objectBoundingBox" id="filter-14">
            <feGaussianBlur stdDeviation="1" in="SourceAlpha" result="shadowBlurInner1"></feGaussianBlur>
            <feOffset dx="0" dy="1" in="shadowBlurInner1" result="shadowOffsetInner1"></feOffset>
            <feComposite in="shadowOffsetInner1" in2="SourceAlpha" operator="arithmetic" k2="-1" k3="1" result="shadowInnerInner1"></feComposite>
            <feColorMatrix values="0 0 0 0 0   0 0 0 0 0   0 0 0 0 0  0 0 0 0.5 0" type="matrix" in="shadowInnerInner1"></feColorMatrix>
        </filter>
        <path d="M533.54,44.2151 C533.54,41.9471 532.874,40.3021 531.541,39.2781 C530.281,38.1801 528.541,37.6321 526.319,37.6321 C524.838,37.6321 523.357,37.8151 521.875,38.1801 C520.468,38.5461 519.246,39.0951 518.209,39.8261 L518.209,77.8971 C517.468,78.1161 516.283,78.3361 514.654,78.5551 C513.099,78.7751 511.469,78.8841 509.766,78.8841 C508.136,78.8841 506.655,78.7751 505.322,78.5551 C504.063,78.3361 502.989,77.8971 502.1,77.2391 C501.212,76.5801 500.508,75.7031 499.99,74.6061 C499.545,73.4351 499.323,71.9361 499.323,70.1071 L499.323,37.1931 C499.323,35.2181 499.73,33.6091 500.545,32.3661 C501.434,31.1221 502.619,29.9881 504.1,28.9641 C506.618,27.2091 509.766,25.7831 513.543,24.6861 C517.394,23.5881 521.653,23.0401 526.319,23.0401 C534.688,23.0401 541.132,24.8681 545.65,28.5261 C550.168,32.1101 552.426,37.1201 552.426,43.5561 L552.426,77.8971 C551.686,78.1161 550.501,78.3361 548.871,78.5551 C547.316,78.7751 545.687,78.8841 543.983,78.8841 C542.354,78.8841 540.873,78.7751 539.539,78.5551 C538.28,78.3361 537.206,77.8971 536.318,77.2391 C535.429,76.5801 534.725,75.7031 534.207,74.6061 C533.762,73.4351 533.54,71.9361 533.54,70.1071 L533.54,44.2151 Z" id="path-15"></path>
        <filter x="-2.8%" y="-2.7%" width="105.6%" height="105.4%" filterUnits="objectBoundingBox" id="filter-16">
            <feGaussianBlur stdDeviation="1" in="SourceAlpha" result="shadowBlurInner1"></feGaussianBlur>
            <feOffset dx="0" dy="1" in="shadowBlurInner1" result="shadowOffsetInner1"></feOffset>
            <feComposite in="shadowOffsetInner1" in2="SourceAlpha" operator="arithmetic" k2="-1" k3="1" result="shadowInnerInner1"></feComposite>
            <feColorMatrix values="0 0 0 0 0   0 0 0 0 0   0 0 0 0 0  0 0 0 0.5 0" type="matrix" in="shadowInnerInner1"></feColorMatrix>
        </filter>
        <path d="M590.422,23.0401 C594.643,23.0401 598.458,23.5881 601.865,24.6861 C605.346,25.7101 608.271,27.0631 610.641,28.7451 C612.122,29.7691 613.27,30.9031 614.085,32.1461 C614.974,33.3901 615.418,34.9991 615.418,36.9741 L615.418,75.3741 C615.418,79.2501 614.678,82.5781 613.196,85.3581 C611.715,88.2101 609.678,90.5511 607.086,92.3791 C604.568,94.2811 601.568,95.6711 598.087,96.5481 C594.681,97.4261 591.014,97.8651 587.089,97.8651 C580.349,97.8651 575.054,96.9511 571.202,95.1221 C567.351,93.3671 565.425,90.4781 565.425,86.4551 C565.425,84.7721 565.759,83.2731 566.425,81.9561 C567.166,80.7131 567.981,79.7621 568.869,79.1041 C571.017,80.2741 573.424,81.2621 576.091,82.0661 C578.831,82.8711 581.645,83.2731 584.534,83.2731 C588.533,83.2731 591.718,82.6151 594.088,81.2981 C596.458,79.9821 597.643,77.8601 597.643,74.9351 L597.643,73.1791 C594.606,74.4961 590.903,75.1541 586.534,75.1541 C583.201,75.1541 580.016,74.6791 576.979,73.7281 C574.017,72.7041 571.388,71.1681 569.092,69.1201 C566.87,66.9991 565.055,64.2921 563.648,61.0011 C562.315,57.7101 561.648,53.7961 561.648,49.2621 C561.648,44.8001 562.352,40.9231 563.759,37.6321 C565.24,34.3401 567.24,31.6341 569.758,29.5131 C572.35,27.3191 575.387,25.7101 578.868,24.6861 C582.423,23.5881 586.274,23.0401 590.422,23.0401 Z M597.31,38.9481 C596.791,38.6561 596.014,38.3631 594.977,38.0711 C594.014,37.7781 592.792,37.6321 591.311,37.6321 C587.682,37.6321 584.941,38.6561 583.09,40.7041 C581.312,42.6791 580.423,45.5311 580.423,49.2621 C580.423,53.5041 581.312,56.5761 583.09,58.4781 C584.941,60.3061 587.274,61.2201 590.089,61.2201 C593.125,61.2201 595.532,60.5261 597.31,59.1361 L597.31,38.9481 Z" id="path-17"></path>
        <filter x="-2.8%" y="-2.0%" width="105.6%" height="104.0%" filterUnits="objectBoundingBox" id="filter-18">
            <feGaussianBlur stdDeviation="1" in="SourceAlpha" result="shadowBlurInner1"></feGaussianBlur>
            <feOffset dx="0" dy="1" in="shadowBlurInner1" result="shadowOffsetInner1"></feOffset>
            <feComposite in="shadowOffsetInner1" in2="SourceAlpha" operator="arithmetic" k2="-1" k3="1" result="shadowInnerInner1"></feComposite>
            <feColorMatrix values="0 0 0 0 0   0 0 0 0 0   0 0 0 0 0  0 0 0 0.5 0" type="matrix" in="shadowInnerInner1"></feColorMatrix>
        </filter>
        <path d="M683.007,51.3461 C683.007,55.8811 682.303,59.9401 680.896,63.5241 C679.489,67.0351 677.489,69.9981 674.897,72.4111 C672.379,74.8251 669.342,76.6541 665.787,77.8971 C662.232,79.1401 658.27,79.7621 653.9,79.7621 C649.53,79.7621 645.568,79.1041 642.013,77.7871 C638.458,76.4711 635.384,74.6061 632.792,72.1921 C630.274,69.7051 628.311,66.7061 626.904,63.1951 C625.496,59.6841 624.793,55.7351 624.793,51.3461 C624.793,47.0311 625.496,43.1181 626.904,39.6071 C628.311,36.0961 630.274,33.1341 632.792,30.7201 C635.384,28.2331 638.458,26.3311 642.013,25.0151 C645.568,23.6981 649.53,23.0401 653.9,23.0401 C658.27,23.0401 662.232,23.7351 665.787,25.1241 C669.342,26.4411 672.379,28.3431 674.897,30.8301 C677.489,33.2431 679.489,36.2061 680.896,39.7161 C682.303,43.2271 683.007,47.1041 683.007,51.3461 Z M644.123,51.3461 C644.123,55.8081 644.975,59.2461 646.679,61.6591 C648.456,64.0001 650.9,65.1701 654.011,65.1701 C657.122,65.1701 659.492,63.9631 661.121,61.5501 C662.824,59.1361 663.676,55.7351 663.676,51.3461 C663.676,46.9581 662.824,43.5931 661.121,41.2521 C659.417,38.8391 657.01,37.6321 653.9,37.6321 C650.789,37.6321 648.382,38.8391 646.679,41.2521 C644.975,43.5931 644.123,46.9581 644.123,51.3461 Z" id="path-19"></path>
        <filter x="-2.6%" y="-2.6%" width="105.2%" height="105.3%" filterUnits="objectBoundingBox" id="filter-20">
            <feGaussianBlur stdDeviation="1" in="SourceAlpha" result="shadowBlurInner1"></feGaussianBlur>
            <feOffset dx="0" dy="1" in="shadowBlurInner1" result="shadowOffsetInner1"></feOffset>
            <feComposite in="shadowOffsetInner1" in2="SourceAlpha" operator="arithmetic" k2="-1" k3="1" result="shadowInnerInner1"></feComposite>
            <feColorMatrix values="0 0 0 0 0   0 0 0 0 0   0 0 0 0 0  0 0 0 0.5 0" type="matrix" in="shadowInnerInner1"></feColorMatrix>
        </filter>
    </defs>
    <g id="Page-1" stroke="none" stroke-width="1" fill="none" fill-rule="evenodd">
        <g id="Group" transform="translate(0.000000, 0.134900)" fill-rule="nonzero">
            <g id="Path">
                <use fill="#FFFFFF" xlink:href="#path-1"></use>
                <use fill="black" fill-opacity="1" filter="url(#filter-2)" xlink:href="#path-1"></use>
            </g>
            <g id="Path">
                <use fill="#FFFFFF" xlink:href="#path-3"></use>
                <use fill="black" fill-opacity="1" filter="url(#filter-4)" xlink:href="#path-3"></use>
            </g>
            <g id="Path">
                <use fill="#FFFFFF" xlink:href="#path-5"></use>
                <use fill="black" fill-opacity="1" filter="url(#filter-6)" xlink:href="#path-5"></use>
            </g>
            <g id="Path">
                <use fill="#FFFFFF" xlink:href="#path-7"></use>
                <use fill="black" fill-opacity="1" filter="url(#filter-8)" xlink:href="#path-7"></use>
            </g>
            <g id="Path">
                <use fill="#FFFFFF" xlink:href="#path-9"></use>
                <use fill="black" fill-opacity="1" filter="url(#filter-10)" xlink:href="#path-9"></use>
            </g>
            <g id="Path">
                <use fill="#FFFFFF" xlink:href="#path-11"></use>
                <use fill="black" fill-opacity="1" filter="url(#filter-12)" xlink:href="#path-11"></use>
            </g>
            <g id="Shape">
                <use fill="#FFFFFF" xlink:href="#path-13"></use>
                <use fill="black" fill-opacity="1" filter="url(#filter-14)" xlink:href="#path-13"></use>
            </g>
            <g id="Path">
                <use fill="#FFFFFF" xlink:href="#path-15"></use>
                <use fill="black" fill-opacity="1" filter="url(#filter-16)" xlink:href="#path-15"></use>
            </g>
            <g id="Shape">
                <use fill="#FFFFFF" xlink:href="#path-17"></use>
                <use fill="black" fill-opacity="1" filter="url(#filter-18)" xlink:href="#path-17"></use>
            </g>
            <g id="Shape">
                <use fill="#FFFFFF" xlink:href="#path-19"></use>
                <use fill="black" fill-opacity="1" filter="url(#filter-20)" xlink:href="#path-19"></use>
            </g>
        </g>
    </g>
</svg>