<?xml version="1.0" encoding="UTF-8"?>
<svg width="217px" height="153px" viewBox="0 0 217 153" version="1.1" xmlns="http://www.w3.org/2000/svg" xmlns:xlink="http://www.w3.org/1999/xlink">
    <title>img</title>
    <g id="Page-1" stroke="none" stroke-width="1" fill="none" fill-rule="evenodd">
        <g id="img" transform="translate(0.000000, 1.000000)">
            <path d="M165.503,38.1072 L153.963,38.1072 L145.77,46.1566 L165.503,46.1566 C167.712,46.1566 169.506,47.9604 169.506,50.1813 L169.506,56.3127 C169.506,64.425 166.731,72.3801 161.687,78.7159 C157.382,84.1283 151.651,88.1446 145.115,90.3341 L139.469,92.2248 C137.373,92.9281 136.239,95.2077 136.936,97.3186 C137.494,99.005 139.058,100.07 140.736,100.07 C141.154,100.07 141.58,100.003 142.002,99.865 L147.648,97.9705 C155.651,95.2905 162.668,90.3697 167.943,83.7468 C174.112,75.9887 177.513,66.2445 177.513,56.3127 L177.513,50.1813 C177.513,43.5238 172.125,38.1072 165.503,38.1072 Z" id="Path" fill="#405FD3" fill-rule="nonzero"></path>
            <path d="M78.9065,92.2248 L73.261,90.3383 C66.7242,88.1446 60.9932,84.1283 56.6884,78.7159 C51.6445,72.3801 48.8692,64.425 48.8692,56.3127 L48.8692,50.1813 C48.8692,47.9604 50.6635,46.1566 52.8726,46.1566 L73.5613,46.1566 L64.4128,38.1072 L52.8726,38.1072 C46.2503,38.1072 40.8623,43.5238 40.8623,50.1813 L40.8623,56.3127 C40.8623,66.2445 44.2632,75.9887 50.433,83.7468 C55.7074,90.3697 62.7249,95.2905 70.7276,97.9747 L76.3731,99.865 C76.7953,100.003 77.2217,100.07 77.6398,100.07 C79.3173,100.07 80.8811,99.005 81.44,97.3186 C82.1364,95.2077 81.0021,92.9281 78.9065,92.2248 Z" id="Path" fill="#405FD3" fill-rule="nonzero"></path>
            <path d="M121.465,116.67 L121.465,122.626 C121.465,124.879 123.226,126.651 125.468,126.651 C132.115,126.651 137.479,132.043 137.479,138.725 L137.479,146.774 C137.479,149.028 135.718,150.799 133.475,150.799 L84.9002,150.799 C82.6576,150.799 80.8968,149.028 80.8968,146.774 L80.8968,138.725 C80.8968,132.043 86.2608,126.651 92.907,126.651 C95.15,126.651 96.911,124.879 96.911,122.626 L96.911,116.67 C82.0175,111.92 71.129,98.7189 69.367,83.0225 L64.4023,38.1072 L153.973,38.1072 L149.009,83.0225 C147.247,98.7189 136.358,111.92 121.465,116.67 Z" id="Path" fill="#7087DE" fill-rule="nonzero"></path>
            <path d="M133.475,150.799 L109.188,150.799 L109.188,38.1072 L153.973,38.1072 L149.008,83.0225 C147.246,98.7189 136.358,111.92 121.465,116.67 L121.465,122.626 C121.465,124.879 123.226,126.651 125.468,126.651 C132.115,126.651 137.479,132.043 137.479,138.725 L137.479,146.774 C137.479,149.028 135.718,150.799 133.475,150.799 Z" id="Path" fill="#405FD3" fill-rule="nonzero"></path>
            <path d="M129.045,68.4529 C128.565,66.9237 127.285,65.8777 125.763,65.6366 L116.795,64.3485 L112.792,56.3788 C112.071,55.011 110.63,54.3664 109.189,54.3664 C107.748,54.3664 106.306,55.011 105.586,56.3788 L101.582,64.3485 L92.614,65.6356 C91.093,65.8777 89.813,66.9237 89.332,68.4529 C88.932,69.9024 89.332,71.5112 90.453,72.5583 L96.858,78.7568 L95.337,87.4497 C95.096,88.8992 95.657,90.4284 96.939,91.3948 C98.14,92.2794 99.821,92.4408 101.102,91.7165 L109.189,87.5304 L117.276,91.7165 C118.636,92.4408 120.238,92.2794 121.44,91.3948 C122.72,90.4284 123.281,88.8992 123.04,87.4497 L121.519,78.7568 L127.925,72.5583 C129.045,71.5123 129.447,69.9024 129.045,68.4529 Z" id="Path" fill="#FFFFFF" fill-rule="nonzero"></path>
            <path d="M117.275,91.7165 L109.188,87.5304 L109.188,54.3664 C110.628,54.3664 112.07,55.011 112.791,56.3788 L116.794,64.3485 L125.762,65.6366 C127.283,65.8777 128.564,66.9237 129.044,68.4529 C129.445,69.9024 129.044,71.5123 127.923,72.5583 L121.518,78.7568 L123.039,87.4508 C123.28,88.8992 122.719,90.4284 121.438,91.3948 C120.237,92.2794 118.635,92.4408 117.275,91.7165 Z" id="Path" fill="#E8E8F0" fill-rule="nonzero"></path>
            <path d="M156.332,13.0385 C155.472,13.0385 154.775,13.7356 154.775,14.5955 L154.775,18.2561 L151.15,18.2561 C150.286,18.2561 149.585,18.9569 149.585,19.8214 C149.585,20.6859 150.286,21.3867 151.15,21.3867 L154.775,21.3867 L154.775,25.0474 C154.775,25.9073 155.472,26.6044 156.332,26.6044 C157.192,26.6044 157.889,25.9073 157.889,25.0474 L157.889,21.3867 L161.514,21.3867 C162.378,21.3867 163.079,20.6859 163.079,19.8214 C163.079,18.9569 162.378,18.2561 161.514,18.2561 L157.889,18.2561 L157.889,14.5955 C157.889,13.7356 157.192,13.0385 156.332,13.0385 Z" id="Path" fill="#E8E8F0"></path>
            <path d="M157.087,138.434 C156.227,138.434 155.53,139.131 155.53,139.991 L155.53,143.652 L151.905,143.652 C151.041,143.652 150.34,144.353 150.34,145.217 C150.34,146.082 151.041,146.782 151.905,146.782 L155.53,146.782 L155.53,150.443 C155.53,151.303 156.227,152 157.087,152 C157.947,152 158.644,151.303 158.644,150.443 L158.644,146.782 L162.269,146.782 C163.133,146.782 163.834,146.082 163.834,145.217 C163.834,144.353 163.133,143.652 162.269,143.652 L158.644,143.652 L158.644,139.991 C158.644,139.131 157.947,138.434 157.087,138.434 Z" id="Path" fill="#BDC1D2"></path>
            <path d="M34.6987,97.682 C34.6987,100.132 32.7248,102.108 30.301,102.108 C27.8772,102.108 25.9033,100.132 25.9033,97.682 C25.9033,95.2324 27.8772,93.2557 30.301,93.2557 C32.7248,93.2557 34.6987,95.2324 34.6987,97.682 Z" id="Path" stroke="#100D3C" stroke-width="2"></path>
            <path d="M192.003,18.8187 C192.003,22.0175 189.425,24.6017 186.256,24.6017 C183.087,24.6017 180.509,22.0175 180.509,18.8187 C180.509,15.6199 183.087,13.0357 186.256,13.0357 C189.425,13.0357 192.003,15.6199 192.003,18.8187 Z" id="Path" stroke="#100D3C" stroke-width="2"></path>
            <path d="M189.773,117.471 C189.773,122.543 185.684,126.646 180.652,126.646 C175.62,126.646 171.531,122.543 171.531,117.471 C171.531,112.399 175.62,108.297 180.652,108.297 C185.684,108.297 189.773,112.399 189.773,117.471 Z" id="Path" stroke="#BDC1D2" stroke-width="2"></path>
            <path d="M89.207,24.8058 C89.207,26.8808 87.535,28.5539 85.4837,28.5539 C83.4326,28.5539 81.7607,26.8808 81.7607,24.8058 C81.7607,22.7308 83.4326,21.0577 85.4837,21.0577 C87.535,21.0577 89.207,22.7308 89.207,24.8058 Z" id="Path" stroke="#BDC1D2" stroke-width="2"></path>
            <path d="M111.15,3.74808 C111.15,5.82308 109.478,7.49615 107.427,7.49615 C105.376,7.49615 103.704,5.82308 103.704,3.74808 C103.704,1.67307 105.376,0 107.427,0 C109.478,0 111.15,1.67307 111.15,3.74808 Z" id="Path" stroke="#405FD3" stroke-width="2"></path>
            <circle id="Oval" stroke="#405FD3" stroke-width="2" cx="23" cy="49" r="6"></circle>
            <path d="M208.228,33.0935 C207.11,33.0935 206.204,33.9997 206.204,35.1176 L206.204,39.8764 L201.492,39.8764 C200.368,39.8764 199.457,40.7875 199.457,41.9113 C199.457,43.0352 200.368,43.9462 201.492,43.9462 L206.204,43.9462 L206.204,48.705 C206.204,49.823 207.11,50.7292 208.228,50.7292 C209.346,50.7292 210.252,49.823 210.252,48.705 L210.252,43.9462 L214.965,43.9462 C216.089,43.9462 217,43.0352 217,41.9113 C217,40.7875 216.089,39.8764 214.965,39.8764 L210.252,39.8764 L210.252,35.1176 C210.252,33.9997 209.346,33.0935 208.228,33.0935 Z" id="Path" fill="#E8E8F0"></path>
            <path d="M193.521,76.0308 C192.661,76.0308 191.964,76.7279 191.964,77.5878 L191.964,81.2484 L188.34,81.2484 C187.475,81.2484 186.774,81.9492 186.774,82.8137 C186.774,83.6782 187.475,84.379 188.34,84.379 L191.964,84.379 L191.964,88.0397 C191.964,88.8996 192.661,89.5967 193.521,89.5967 C194.381,89.5967 195.078,88.8996 195.078,88.0397 L195.078,84.379 L198.703,84.379 C199.568,84.379 200.269,83.6782 200.269,82.8137 C200.269,81.9492 199.568,81.2484 198.703,81.2484 L195.078,81.2484 L195.078,77.5878 C195.078,76.7279 194.381,76.0308 193.521,76.0308 Z" id="Path" fill="#405FD3"></path>
            <path d="M54.5915,13.0385 C53.7316,13.0385 53.0345,13.7356 53.0345,14.5955 L53.0345,18.2562 L49.41,18.2562 C48.5455,18.2562 47.8447,18.957 47.8447,19.8215 C47.8447,20.6859 48.5455,21.3868 49.41,21.3868 L53.0345,21.3868 L53.0345,25.0474 C53.0345,25.9073 53.7316,26.6044 54.5915,26.6044 C55.4514,26.6044 56.1486,25.9073 56.1486,25.0474 L56.1486,21.3868 L59.7737,21.3868 C60.6382,21.3868 61.339,20.6859 61.339,19.8215 C61.339,18.957 60.6382,18.2562 59.7737,18.2562 L56.1486,18.2562 L56.1486,14.5955 C56.1486,13.7356 55.4514,13.0385 54.5915,13.0385 Z" id="Path" fill="#E8E8F0"></path>
            <path d="M46.6714,127.352 C45.2955,127.352 44.1801,128.467 44.1801,129.843 L44.1801,135.7 L38.3795,135.7 C36.9963,135.7 35.875,136.821 35.875,138.205 C35.875,139.588 36.9963,140.709 38.3795,140.709 L44.1801,140.709 L44.1801,146.566 C44.1801,147.942 45.2955,149.057 46.6714,149.057 C48.0473,149.057 49.1626,147.942 49.1626,146.566 L49.1626,140.709 L54.9614,140.709 C56.3446,140.709 57.4658,139.588 57.4658,138.205 C57.4658,136.821 56.3446,135.7 54.9614,135.7 L49.1626,135.7 L49.1626,129.843 C49.1626,128.467 48.0473,127.352 46.6714,127.352 Z" id="Path" fill="#E8E8F0"></path>
            <path d="M10.7962,79 C9.42033,79 8.30496,80.1153 8.30496,81.4912 L8.30496,87.3482 L2.50448,87.3482 C1.12129,87.3482 0,88.4695 0,89.8527 C0,91.2359 1.1213,92.3572 2.50448,92.3572 L8.30496,92.3572 L8.30496,98.2142 C8.30496,99.5901 9.42033,100.7058 10.7962,100.7058 C12.1721,100.7058 13.2875,99.5901 13.2875,98.2142 L13.2875,92.3572 L19.0864,92.3572 C20.4696,92.3572 21.5908,91.2359 21.5908,89.8527 C21.5908,88.4695 20.4696,87.3482 19.0864,87.3482 L13.2875,87.3482 L13.2875,81.4912 C13.2875,80.1153 12.1721,79 10.7962,79 Z" id="Path" fill="#E8E8F0"></path>
        </g>
    </g>
</svg>