<?xml version="1.0" encoding="UTF-8"?>
<svg width="180px" height="131px" viewBox="0 0 180 131" version="1.1" xmlns="http://www.w3.org/2000/svg" xmlns:xlink="http://www.w3.org/1999/xlink">
    <title>Downloading</title>
    <g id="Downloading" stroke="none" stroke-width="1" fill="none" fill-rule="evenodd">
        <path d="M137,0 C136.363,0 135.846,0.516595 135.846,1.15385 L135.846,3.84615 L133.154,3.84615 C132.517,3.84615 132,4.36275 132,5 C132,5.63725 132.517,6.15385 133.154,6.15385 L135.846,6.15385 L135.846,8.84615 C135.846,9.48341 136.363,10 137,10 C137.637,10 138.154,9.48341 138.154,8.84615 L138.154,6.15385 L140.846,6.15385 C141.483,6.15385 142,5.63725 142,5 C142,4.36275 141.483,3.84615 140.846,3.84615 L138.154,3.84615 L138.154,1.15385 C138.154,0.516595 137.637,0 137,0 Z" id="Path" fill="#E8E8F0" fill-rule="nonzero"></path>
        <path d="M129,105 C128.363,105 127.846,105.517 127.846,106.154 L127.846,108.846 L125.154,108.846 C124.517,108.846 124,109.363 124,110 C124,110.637 124.517,111.154 125.154,111.154 L127.846,111.154 L127.846,113.846 C127.846,114.483 128.363,115 129,115 C129.637,115 130.154,114.483 130.154,113.846 L130.154,111.154 L132.846,111.154 C133.483,111.154 134,110.637 134,110 C134,109.363 133.483,108.846 132.846,108.846 L130.154,108.846 L130.154,106.154 C130.154,105.517 129.637,105 129,105 Z" id="Path" fill="#BDC1D2" fill-rule="nonzero"></path>
        <circle id="Oval" stroke="#100D3C" stroke-width="2" cx="31" cy="95" r="3"></circle>
        <circle id="Oval" stroke="#100D3C" stroke-width="2" cx="156" cy="24" r="4"></circle>
        <circle id="Oval" stroke="#BDC1D2" stroke-width="2" cx="166.5" cy="98.5" r="6.5"></circle>
        <circle id="Oval" stroke="#BDC1D2" stroke-width="2" cx="177.5" cy="72.5" r="2.5"></circle>
        <circle id="Oval" stroke="#405FD3" stroke-width="2" cx="81.5" cy="3.5" r="2.5"></circle>
        <circle id="Oval" stroke="#405FD3" stroke-width="2" cx="37.5" cy="37.5" r="5.5"></circle>
        <path d="M112.5,9 C111.672,9 111,9.67157 111,10.5 L111,14 L107.5,14 C106.672,14 106,14.6716 106,15.5 C106,16.3284 106.672,17 107.5,17 L111,17 L111,20.5 C111,21.3284 111.672,22 112.5,22 C113.328,22 114,21.3284 114,20.5 L114,17 L117.5,17 C118.328,17 119,16.3284 119,15.5 C119,14.6716 118.328,14 117.5,14 L114,14 L114,10.5 C114,9.67157 113.328,9 112.5,9 Z" id="Path" fill="#405FD3" fill-rule="nonzero"></path>
        <path d="M156,59 C155.363,59 154.846,59.5166 154.846,60.1538 L154.846,62.8462 L152.154,62.8462 C151.517,62.8462 151,63.3627 151,64 C151,64.6373 151.517,65.1538 152.154,65.1538 L154.846,65.1538 L154.846,67.8462 C154.846,68.4834 155.363,69 156,69 C156.637,69 157.154,68.4834 157.154,67.8462 L157.154,65.1538 L159.846,65.1538 C160.483,65.1538 161,64.6373 161,64 C161,63.3627 160.483,62.8462 159.846,62.8462 L157.154,62.8462 L157.154,60.1538 C157.154,59.5166 156.637,59 156,59 Z" id="Path" fill="#405FD3" fill-rule="nonzero"></path>
        <path d="M54,19 C53.3627,19 52.8462,19.5166 52.8462,20.1538 L52.8462,22.8462 L50.1538,22.8462 C49.5166,22.8462 49,23.3627 49,24 C49,24.6373 49.5166,25.1538 50.1538,25.1538 L52.8462,25.1538 L52.8462,27.8462 C52.8462,28.4834 53.3627,29 54,29 C54.6373,29 55.1538,28.4834 55.1538,27.8462 L55.1538,25.1538 L57.8462,25.1538 C58.4834,25.1538 59,24.6373 59,24 C59,23.3627 58.4834,22.8462 57.8462,22.8462 L55.1538,22.8462 L55.1538,20.1538 C55.1538,19.5166 54.6373,19 54,19 Z" id="Path" fill="#E8E8F0" fill-rule="nonzero"></path>
        <path d="M79.0001,115 C77.9805,115 77.1539,115.827 77.1539,116.846 L77.1539,121.154 L72.8462,121.154 C71.8266,121.154 71,121.98 71,123 C71,124.02 71.8266,124.846 72.8462,124.846 L77.1539,124.846 L77.1539,129.154 C77.1539,130.173 77.9805,131 79.0001,131 C80.0197,131 80.8462,130.173 80.8462,129.154 L80.8462,124.846 L85.1538,124.846 C86.1734,124.846 87,124.02 87,123 C87,121.98 86.1734,121.154 85.1538,121.154 L80.8462,121.154 L80.8462,116.846 C80.8462,115.827 80.0197,115 79.0001,115 Z" id="Path" fill="#E8E8F0" fill-rule="nonzero"></path>
        <path d="M8.00006,48 C6.98046,48 6.15391,48.8266 6.15391,49.8462 L6.15391,54.1538 L1.84615,54.1538 C0.826551,54.1538 0,54.9804 0,56 C0,57.0196 0.826551,57.8462 1.84615,57.8462 L6.15391,57.8462 L6.15391,62.1538 C6.15391,63.1734 6.98046,64 8.00006,64 C9.01966,64 9.84621,63.1734 9.84621,62.1538 L9.84621,57.8462 L14.1538,57.8462 C15.1734,57.8462 16,57.0196 16,56 C16,54.9804 15.1734,54.1538 14.1538,54.1538 L9.84621,54.1538 L9.84621,49.8462 C9.84621,48.8266 9.01966,48 8.00006,48 Z" id="Path" fill="#E8E8F0" fill-rule="nonzero"></path>
        <path d="M115.071,53.6338 C111.837,42.7288 101.743,34.7732 89.7885,34.7732 C75.2249,34.7732 63.4188,46.5794 63.4188,61.1429 C63.4188,61.1631 63.4195,61.183 63.4195,61.2032 C62.9648,61.1668 62.5066,61.1429 62.0425,61.1429 C52.6334,61.1429 45,68.7705 45,78.1794 C45,87.302 52.2124,94.7494 61.1766,95.1945 L61.1766,95.2268 L114.198,95.2268 C125.686,95.2268 134.999,85.9088 134.999,74.4205 C134.999,63.2252 126.154,54.0917 115.071,53.6338 Z" id="Path" fill="#405FD3" fill-rule="nonzero" opacity="0.75"></path>
        <path d="M97.219,86.4399 C94.8893,87.1144 92.4263,87.4758 89.8789,87.4758 C75.3256,87.4758 63.5278,75.6781 63.5278,61.1248 C63.5278,46.5715 75.3256,34.7737 89.8789,34.7737 C101.829,34.7737 111.921,42.7278 115.149,53.6304 C126.196,54.1283 135,63.2424 135,74.4128 C135,85.9024 125.686,95.2166 114.196,95.2166 C107.188,95.2166 100.989,91.751 97.219,86.4399 Z" id="Path" fill="#405FD3" fill-rule="nonzero"></path>
        <path d="M94.2448,65.7753 L94.2448,53.4875 C94.2448,51.1554 92.1366,49.3023 89.5237,49.3023 L89.5061,49.3023 C86.893,49.3023 84.7571,51.1556 84.7571,53.4875 L84.7571,65.7753 L80.0146,65.7753 C78.1914,65.7753 77.1453,67.6289 78.2306,68.9366 L87.9034,80.593 C88.7931,81.6651 90.5912,81.6623 91.4764,80.5875 L101.076,68.9308 C102.154,67.6224 101.107,65.7753 99.287,65.7753 L94.2448,65.7753 Z" id="Path" fill="#FFFFFF" fill-rule="nonzero"></path>
    </g>
</svg>