<svg width="225" height="163" viewBox="0 0 225 163" fill="none" xmlns="http://www.w3.org/2000/svg">
<path fill-rule="evenodd" clip-rule="evenodd" d="M170.304 0C169.512 0 168.87 0.642175 168.87 1.43434V4.78116H165.523C164.731 4.78116 164.088 5.42334 164.088 6.2155C164.088 7.00766 164.731 7.64984 165.523 7.64984H168.87V10.9966C168.87 11.7888 169.512 12.4309 170.304 12.4309C171.096 12.4309 171.738 11.7888 171.738 10.9966V7.64984H175.085C175.877 7.64984 176.519 7.00766 176.519 6.2155C176.519 5.42334 175.877 4.78116 175.085 4.78116H171.738V1.43434C171.738 0.642175 171.096 0 170.304 0Z" fill="#E8E8F0"/>
<path fill-rule="evenodd" clip-rule="evenodd" d="M160.359 130.525C159.567 130.525 158.925 131.167 158.925 131.959V135.306H155.578C154.786 135.306 154.144 135.948 154.144 136.74C154.144 137.533 154.786 138.175 155.578 138.175H158.925V141.522C158.925 142.314 159.567 142.956 160.359 142.956C161.151 142.956 161.793 142.314 161.793 141.522V138.175H165.14C165.932 138.175 166.574 137.533 166.574 136.74C166.574 135.948 165.932 135.306 165.14 135.306H161.793V131.959C161.793 131.167 161.151 130.525 160.359 130.525Z" fill="#BDC1D2"/>
<circle cx="38.5359" cy="118.094" r="3.97238" stroke="#100D3C" stroke-width="2"/>
<circle cx="193.923" cy="29.8342" r="5.21547" stroke="#100D3C" stroke-width="2"/>
<circle cx="206.975" cy="122.445" r="8.3232" stroke="#BDC1D2" stroke-width="2"/>
<circle cx="220.649" cy="90.1243" r="3.35083" stroke="#BDC1D2" stroke-width="2"/>
<circle cx="101.312" cy="4.35083" r="3.35083" stroke="#405FD3" stroke-width="2"/>
<circle cx="46.6162" cy="46.616" r="7.08011" stroke="#405FD3" stroke-width="2"/>
<path fill-rule="evenodd" clip-rule="evenodd" d="M139.848 11.1879C138.818 11.1879 137.984 12.0227 137.984 13.0525V17.4033H133.633C132.603 17.4033 131.768 18.2382 131.768 19.268C131.768 20.2978 132.603 21.1326 133.633 21.1326H137.984V25.4834C137.984 26.5133 138.818 27.3481 139.848 27.3481C140.878 27.3481 141.713 26.5133 141.713 25.4834V21.1326H146.064C147.093 21.1326 147.928 20.2978 147.928 19.268C147.928 18.2382 147.093 17.4033 146.064 17.4033H141.713V13.0525C141.713 12.0227 140.878 11.1879 139.848 11.1879Z" fill="#405FD3"/>
<path fill-rule="evenodd" clip-rule="evenodd" d="M193.923 73.3425C193.13 73.3425 192.488 73.9847 192.488 74.7769V78.1237H189.141C188.349 78.1237 187.707 78.7659 187.707 79.558C187.707 80.3502 188.349 80.9924 189.141 80.9924H192.488V84.3391C192.488 85.1313 193.13 85.7735 193.923 85.7735C194.715 85.7735 195.357 85.1313 195.357 84.3391V80.9924H198.704C199.496 80.9924 200.138 80.3502 200.138 79.558C200.138 78.7659 199.496 78.1237 198.704 78.1237H195.357V74.7769C195.357 73.9847 194.715 73.3425 193.923 73.3425Z" fill="#405FD3"/>
<path fill-rule="evenodd" clip-rule="evenodd" d="M67.1271 23.6188C66.335 23.6188 65.6928 24.2609 65.6928 25.0531V28.3999H62.346C61.5538 28.3999 60.9116 29.0421 60.9116 29.8343C60.9116 30.6264 61.5538 31.2686 62.346 31.2686H65.6928V34.6154C65.6928 35.4075 66.335 36.0497 67.1271 36.0497C67.9193 36.0497 68.5615 35.4075 68.5615 34.6154V31.2686H71.9082C72.7004 31.2686 73.3426 30.6264 73.3426 29.8343C73.3426 29.0421 72.7004 28.3999 71.9082 28.3999H68.5615V25.0531C68.5615 24.2609 67.9193 23.6188 67.1271 23.6188Z" fill="#E8E8F0"/>
<path fill-rule="evenodd" clip-rule="evenodd" d="M98.2045 142.956C96.937 142.956 95.9095 143.983 95.9095 145.251V150.606H90.5547C89.2872 150.606 88.2598 151.633 88.2598 152.901C88.2598 154.168 89.2872 155.195 90.5547 155.195H95.9095V160.55C95.9095 161.818 96.937 162.845 98.2045 162.845C99.4719 162.845 100.499 161.818 100.499 160.55V155.195H105.854C107.122 155.195 108.149 154.168 108.149 152.901C108.149 151.633 107.122 150.606 105.854 150.606H100.499V145.251C100.499 143.983 99.4719 142.956 98.2045 142.956Z" fill="#E8E8F0"/>
<path fill-rule="evenodd" clip-rule="evenodd" d="M9.94471 59.6685C8.67724 59.6685 7.64976 60.696 7.64976 61.9635V67.3183H2.29494C1.02748 67.3183 0 68.3458 0 69.6132C0 70.8807 1.02748 71.9082 2.29494 71.9082H7.64976V77.2631C7.64976 78.5305 8.67724 79.558 9.94471 79.558C11.2122 79.558 12.2396 78.5305 12.2396 77.2631V71.9082H17.5946C18.862 71.9082 19.8895 70.8807 19.8895 69.6132C19.8895 68.3458 18.862 67.3183 17.5946 67.3183H12.2396V61.9635C12.2396 60.696 11.2122 59.6685 9.94471 59.6685Z" fill="#E8E8F0"/>
<path d="M164 59.945C164.004 60.6613 163.616 61.3224 162.988 61.6676L115.892 86.3876C114.36 87.2356 112.519 87.3146 110.92 86.6007L69.6308 69.3038C68.2122 68.6523 66.5978 68.5697 65.1201 69.0729L114.667 44.6015C116.89 43.5037 119.459 43.3375 121.806 44.1398L162.704 58.0803C163.49 58.361 164.011 59.1103 164 59.945Z" fill="#405FD3"/>
<path d="M105.396 57.8406L118.106 51.5629C118.327 51.4646 118.565 51.4115 118.806 51.4066C118.975 51.4085 119.142 51.4373 119.301 51.4919L147.715 61.1898L134.364 68.517L105.396 57.8406Z" fill="#ECF0F1"/>
<path d="M164 59.9449L164 78.3251C163.999 79.7416 163.222 81.0436 161.976 81.717L115.874 105.94C114.349 106.788 112.512 106.867 110.92 106.153C110.742 106.078 69.8119 88.9465 69.0625 88.5718C58.7448 83.5106 59.4018 71.3282 65.0668 69.0906C65.0846 69.0906 65.1023 69.0729 65.1201 69.0729C66.5978 68.5697 68.2122 68.6523 69.6308 69.3037L110.92 86.6006C112.519 87.3145 114.36 87.2356 115.892 86.3875L162.988 61.6675C163.616 61.3224 164.004 60.6613 164 59.9449Z" fill="#D9DFF6"/>
<path opacity="0.4" d="M161.976 81.717C162.852 81.2435 164 81.8671 164 82.8631V97.7531C164.002 99.1702 163.233 100.476 161.993 101.163L115.874 125.368C114.354 126.234 112.509 126.313 110.92 125.581L69.6308 108.284C58.727 103.4 59.2953 90.7917 65.0668 88.5186C65.0846 88.5186 65.1023 88.5008 65.1201 88.5008C66.4847 88.2036 67.9026 88.2586 69.2401 88.6607C69.9131 88.9199 74.161 90.7686 110.92 106.153C112.512 106.867 114.349 106.788 115.874 105.94L161.976 81.717Z" fill="#405FD3"/>
<path d="M89.4139 87.7017V107.431C89.4124 107.771 89.2172 108.08 88.9112 108.227C88.6052 108.375 88.242 108.335 87.9755 108.124L83.0564 104.164C82.8995 104.04 82.7059 103.971 82.5058 103.969H77.8708C77.3805 103.969 76.9829 103.571 76.9829 103.081V82.8358L89.4139 87.7017Z" fill="#405FD3"/>
</svg>
