<?xml version="1.0" encoding="UTF-8"?>
<svg width="154px" height="144px" viewBox="0 0 154 144" version="1.1" xmlns="http://www.w3.org/2000/svg" xmlns:xlink="http://www.w3.org/1999/xlink">
    <title>locked</title>
    <defs>
        <linearGradient x1="37.7876059%" y1="81.3333333%" x2="88.8019926%" y2="-2.889%" id="linearGradient-1">
            <stop stop-color="#E8E8F0" offset="0%"></stop>
            <stop stop-color="#E8E8F0" stop-opacity="0" offset="100%"></stop>
        </linearGradient>
    </defs>
    <g id="Page-1" stroke="none" stroke-width="1" fill="none" fill-rule="evenodd">
        <g id="locked" transform="translate(0.000000, 1.000000)">
            <path d="M60.1626,66.264 C58.6579,66.264 57.438,65.1423 57.438,63.7586 L57.438,48.5593 C57.438,43.8839 59.4613,39.4767 63.1348,36.1496 C66.7863,32.8428 71.6011,31.0216 76.6919,31.0216 C87.2083,31.0216 95.764,38.889 95.764,48.5593 L95.764,51.0647 L101.213,51.0647 L101.213,48.5593 C101.213,36.126 90.213,26.0108 76.6919,26.0108 C63.0707,26.0108 51.9888,36.126 51.9888,48.5593 L51.9888,63.7586 C51.9888,65.1423 50.7689,66.264 49.2642,66.264 C47.7594,66.264 46.5396,65.1423 46.5396,63.7586 L46.5396,48.5593 C46.5396,33.3631 60.066,21 76.6919,21 C93.218,21 106.663,33.3631 106.663,48.5593 L106.663,53.57 C106.663,54.9537 105.443,56.0754 103.938,56.0754 L93.04,56.0754 C91.535,56.0754 90.3149,54.9537 90.3149,53.57 L90.3149,48.5593 C90.3149,41.6519 84.2036,36.0323 76.6919,36.0323 C69.0801,36.0323 62.8872,41.6519 62.8872,48.5593 L62.8872,63.7586 C62.8872,65.1423 61.6675,66.264 60.1626,66.264 Z" id="Path" fill="#BDC1D2" fill-rule="nonzero"></path>
            <path d="M112.353,71 L112.353,111 C112.353,116.534 108.635,121 104.028,121 L76.2759,121 L76.2759,61 L104.028,61 C108.635,61 112.353,65.4667 112.353,71 Z" id="Path" fill="#405FD3" fill-rule="nonzero"></path>
            <path d="M41,71 L41,111 C41,116.534 44.7186,121 49.3257,121 L77.0776,121 L77.0776,61 L49.3257,61 C44.7186,61 41,65.4667 41,71 Z" id="Path" fill="#405FD3" fill-rule="nonzero"></path>
            <polygon id="Path" fill="url(#linearGradient-1)" fill-rule="nonzero" opacity="0.2" points="70.6638 61 56.2327 61 70.6637 121 85.0947 121"></polygon>
            <path d="M76.6919,93.2737 C72.1848,93.2737 68.5181,89.902 68.5181,85.7575 C68.5181,81.6131 72.1848,78.2414 76.6919,78.2414 C81.1989,78.2414 84.8657,81.6131 84.8657,85.7575 C84.8657,89.902 81.1991,93.2737 76.6919,93.2737 Z M76.6919,83.2522 C75.1895,83.2522 73.9673,84.3761 73.9673,85.7575 C73.9673,87.139 75.1895,88.2629 76.6919,88.2629 C78.1942,88.2629 79.4165,87.139 79.4165,85.7575 C79.4165,84.3761 78.1944,83.2522 76.6919,83.2522 Z" id="Shape" fill="#FFFFFF" fill-rule="nonzero"></path>
            <path d="M76.6919,103.462 C75.1872,103.462 73.9673,102.341 73.9673,100.957 L73.9673,90.7683 C73.9673,89.3847 75.1872,88.2629 76.6919,88.2629 C78.1966,88.2629 79.4165,89.3847 79.4165,90.7683 L79.4165,100.957 C79.4165,102.341 78.1968,103.462 76.6919,103.462 Z" id="Path" fill="#FFFFFF" fill-rule="nonzero"></path>
            <path d="M129,2 C128.363,2 127.846,2.5166 127.846,3.15385 L127.846,5.84615 L125.154,5.84615 C124.517,5.84615 124,6.36275 124,7 C124,7.63725 124.517,8.15385 125.154,8.15385 L127.846,8.15385 L127.846,10.8462 C127.846,11.4834 128.363,12 129,12 C129.637,12 130.154,11.4834 130.154,10.8462 L130.154,8.15385 L132.846,8.15385 C133.483,8.15385 134,7.63725 134,7 C134,6.36275 133.483,5.84615 132.846,5.84615 L130.154,5.84615 L130.154,3.15385 C130.154,2.51659 129.637,2 129,2 Z" id="Path" fill="#E8E8F0"></path>
            <path d="M115,133 C114.363,133 113.846,133.517 113.846,134.154 L113.846,136.846 L111.154,136.846 C110.517,136.846 110,137.363 110,138 C110,138.637 110.517,139.154 111.154,139.154 L113.846,139.154 L113.846,141.846 C113.846,142.483 114.363,143 115,143 C115.637,143 116.154,142.483 116.154,141.846 L116.154,139.154 L118.846,139.154 C119.483,139.154 120,138.637 120,138 C120,137.363 119.483,136.846 118.846,136.846 L116.154,136.846 L116.154,134.154 C116.154,133.517 115.637,133 115,133 Z" id="Path" fill="#BDC1D2"></path>
            <circle id="Oval" stroke="#405FD3" stroke-width="2" cx="18" cy="97" r="3"></circle>
            <circle id="Oval" stroke="#405FD3" stroke-width="2" cx="148" cy="26" r="4"></circle>
            <circle id="Oval" stroke="#100D3C" stroke-width="2" cx="149" cy="96" r="4"></circle>
            <circle id="Oval" stroke="#100D3C" stroke-width="2" cx="79" cy="4" r="4"></circle>
            <circle id="Oval" stroke="#100D3C" stroke-width="2" cx="27.5" cy="47.5" r="2.5"></circle>
            <path d="M6.5,44 C5.67157,44 5,44.6716 5,45.5 L5,49 L1.5,49 C0.67157,49 0,49.6716 0,50.5 C0,51.3284 0.67157,52 1.5,52 L5,52 L5,55.5 C5,56.3284 5.67157,57 6.5,57 C7.32843,57 8,56.3284 8,55.5 L8,52 L11.5,52 C12.3284,52 13,51.3284 13,50.5 C13,49.6716 12.3284,49 11.5,49 L8,49 L8,45.5 C8,44.6716 7.32843,44 6.5,44 Z" id="Path" fill="#E8E8F0"></path>
            <path d="M32,21 C31.3627,21 30.8462,21.5166 30.8462,22.1538 L30.8462,24.8462 L28.1538,24.8462 C27.5166,24.8462 27,25.3627 27,26 C27,26.6373 27.5166,27.1538 28.1538,27.1538 L30.8462,27.1538 L30.8462,29.8462 C30.8462,30.4834 31.3627,31 32,31 C32.6373,31 33.1538,30.4834 33.1538,29.8462 L33.1538,27.1538 L35.8462,27.1538 C36.4834,27.1538 37,26.6373 37,26 C37,25.3627 36.4834,24.8462 35.8462,24.8462 L33.1538,24.8462 L33.1538,22.1538 C33.1538,21.5166 32.6373,21 32,21 Z" id="Path" fill="#E8E8F0"></path>
            <path d="M37.0001,126 C35.9805,126 35.1539,126.827 35.1539,127.846 L35.1539,132.154 L30.8462,132.154 C29.8266,132.154 29,132.98 29,134 C29,135.02 29.8266,135.846 30.8462,135.846 L35.1539,135.846 L35.1539,140.154 C35.1539,141.173 35.9805,142 37.0001,142 C38.0197,142 38.8462,141.173 38.8462,140.154 L38.8462,135.846 L43.1538,135.846 C44.1734,135.846 45,135.02 45,134 C45,132.98 44.1734,132.154 43.1538,132.154 L38.8462,132.154 L38.8462,127.846 C38.8462,126.827 38.0197,126 37.0001,126 Z" id="Path" fill="#E8E8F0"></path>
            <path d="M118.727,51.2322 C117.728,51.2322 116.766,50.7246 116.288,49.8467 C115.615,48.609 116.161,47.1041 117.507,46.4853 L128.405,41.4745 C129.751,40.8557 131.388,41.3574 132.061,42.5949 C132.733,43.8326 132.188,45.3375 130.842,45.9563 L119.944,50.9671 C119.553,51.147 119.137,51.2322 118.727,51.2322 Z" id="Path" fill="#E8E8F0" fill-rule="nonzero"></path>
            <path d="M129.621,76.2861 C129.212,76.2861 128.796,76.2009 128.405,76.021 L117.507,71.0102 C116.161,70.3914 115.615,68.8865 116.288,67.6488 C116.961,66.4112 118.598,65.9097 119.944,66.5284 L130.842,71.5392 C132.188,72.158 132.733,73.6629 132.06,74.9006 C131.583,75.7785 130.621,76.2861 129.621,76.2861 Z" id="Path" fill="#E8E8F0" fill-rule="nonzero"></path>
            <path d="M129.624,61.2532 L118.725,61.2532 C117.22,61.2532 116,60.1315 116,58.7479 C116,57.3642 117.22,56.2425 118.725,56.2425 L129.624,56.2425 C131.128,56.2425 132.348,57.3642 132.348,58.7479 C132.348,60.1315 131.128,61.2532 129.624,61.2532 Z" id="Path" fill="#E8E8F0" fill-rule="nonzero"></path>
        </g>
    </g>
</svg>