<?xml version="1.0" encoding="UTF-8"?>
<svg width="1500px" height="802px" viewBox="0 0 1500 802" version="1.1" xmlns="http://www.w3.org/2000/svg" xmlns:xlink="http://www.w3.org/1999/xlink">
    <title>login_logo</title>
    <g id="Page-1" stroke="none" stroke-width="1" fill="none" fill-rule="evenodd">
        <g id="login_logo">
            <g id="City" fill-rule="nonzero">
                <polygon id="Rectangle" fill="#F9F8F8" points="1.30104261e-15 1.10189635e-14 1500 1.22777222e-13 1500 802 0 802"></polygon>
                <polygon id="Path" fill="#F6F6F6" points="267 6.16933588e-13 474 6.19837515e-13 474 802 267 802"></polygon>
                <polygon id="Path" fill="#F0F0F0" points="474 5.82348406e-13 625 0.199976096 631.812701 802 474 802"></polygon>
                <rect id="Rectangle" fill="#C4C4C4" x="303" y="41" width="41" height="26"></rect>
                <rect id="Rectangle" fill="#C4C4C4" x="381" y="41" width="41" height="26"></rect>
                <rect id="Rectangle" fill="#C4C4C4" x="381" y="104" width="41" height="26"></rect>
                <rect id="Rectangle" fill="#C4C4C4" x="303" y="104" width="41" height="26"></rect>
                <rect id="Rectangle" fill="#C4C4C4" x="303" y="171" width="41" height="26"></rect>
                <rect id="Rectangle" fill="#C4C4C4" x="381" y="171" width="41" height="26"></rect>
                <rect id="Rectangle" fill="#C4C4C4" x="381" y="233" width="41" height="26"></rect>
                <rect id="Rectangle" fill="#C4C4C4" x="303" y="233" width="41" height="26"></rect>
                <rect id="Rectangle" fill="#C4C4C4" x="303" y="300" width="41" height="26"></rect>
                <rect id="Rectangle" fill="#C4C4C4" x="381" y="300" width="41" height="26"></rect>
                <rect id="Rectangle" fill="#C4C4C4" x="381" y="363" width="41" height="26"></rect>
                <rect id="Rectangle" fill="#C4C4C4" x="303" y="363" width="41" height="26"></rect>
                <rect id="Rectangle" fill="#C4C4C4" x="303" y="430" width="41" height="26"></rect>
                <rect id="Rectangle" fill="#C4C4C4" x="381" y="430" width="41" height="26"></rect>
                <rect id="Rectangle" fill="#C4C4C4" x="381" y="493" width="41" height="26"></rect>
                <rect id="Rectangle" fill="#C4C4C4" x="303" y="493" width="41" height="26"></rect>
                <polygon id="Path" fill="#F3F2F2" points="33 802 33 130 359 224.177672 359 802"></polygon>
                <polygon id="Path" fill="#ECEBEB" points="430 260.884508 359 224.177672 359 802 430 802"></polygon>
                <rect id="Rectangle" fill="#ECEBEB" x="81" y="275" width="45" height="159"></rect>
                <rect id="Rectangle" fill="#ECEBEB" x="255" y="275" width="45" height="159"></rect>
                <rect id="Rectangle" fill="#ECEBEB" x="171" y="422" width="45" height="159"></rect>
                <rect id="Rectangle" fill="#ECEBEB" x="81" y="540" width="45" height="159"></rect>
                <rect id="Rectangle" fill="#ECEBEB" x="240" y="540" width="45" height="159"></rect>
                <polygon id="Path" fill="#F7F7F7" points="625 0.199976096 756 0.199976096 756 91.3285801 625 134"></polygon>
                <polygon id="Path" fill="#E3E3E3" points="756 85.3888329 756 3.67900155e-14 919 2.84217094e-14 919 134"></polygon>
                <polygon id="Path" fill="#EDEDED" points="966 802 766.853879 802 766.853879 74 966 117.344152"></polygon>
                <polygon id="Path" fill="#F9F9F9" points="566 136.705081 766.853879 74 766.853879 802 566 802"></polygon>
                <polygon id="Path" fill="#C4C4C4" opacity="0.6" points="811 802 811 83.6219358 826 86.8630611 826 802"></polygon>
                <polygon id="Path" fill="#C4C4C4" opacity="0.6" points="859 802 859 94.0538263 874 97.3197451 874 802"></polygon>
                <polygon id="Path" fill="#C4C4C4" opacity="0.6" points="904 802 904 103.862822 919 107.128123 919 802"></polygon>
                <polygon id="Path" fill="#F0F0F0" points="1241 200 1017 200 1017 802 1241 802"></polygon>
                <polygon id="Path" fill="#F2F2F2" points="1241 802 1241 200 1500 252.834135 1500 802"></polygon>
                <polygon id="Rectangle" fill="#D5D4D2" transform="translate(1368.234345, 337.245307) rotate(6.622650) translate(-1368.234345, -337.245307) " points="1287.23971 325.465038 1449.22898 325.465038 1449.22898 349.025577 1287.23971 349.025577"></polygon>
                <polygon id="Rectangle" fill="#D5D4D2" transform="translate(1368.234345, 379.021825) rotate(6.622650) translate(-1368.234345, -379.021825) " points="1287.23971 367.241556 1449.22898 367.241556 1449.22898 390.802094 1287.23971 390.802094"></polygon>
                <polygon id="Rectangle" fill="#D5D4D2" transform="translate(1368.234345, 421.026874) rotate(6.622650) translate(-1368.234345, -421.026874) " points="1287.23971 409.246605 1449.22898 409.246605 1449.22898 432.807143 1287.23971 432.807143"></polygon>
                <polygon id="Rectangle" fill="#D5D4D2" transform="translate(1368.234345, 560.521686) rotate(6.622650) translate(-1368.234345, -560.521686) " points="1287.23971 548.741417 1449.22898 548.741417 1449.22898 572.301955 1287.23971 572.301955"></polygon>
                <polygon id="Rectangle" fill="#D5D4D2" transform="translate(1368.234345, 602.297805) rotate(6.622650) translate(-1368.234345, -602.297805) " points="1287.23971 590.517536 1449.22898 590.517536 1449.22898 614.078074 1287.23971 614.078074"></polygon>
                <polygon id="Rectangle" fill="#D5D4D2" transform="translate(1368.234345, 644.306046) rotate(6.622650) translate(-1368.234345, -644.306046) " points="1287.23971 632.525777 1449.22898 632.525777 1449.22898 656.086315 1287.23971 656.086315"></polygon>
                <polygon id="Rectangle" fill="#D5D4D2" transform="translate(1368.234345, 776.796868) rotate(6.622650) translate(-1368.234345, -776.796868) " points="1287.23971 765.016599 1449.22898 765.016599 1449.22898 788.577137 1287.23971 788.577137"></polygon>
                <polygon id="Rectangle" fill="#F4F4F4" transform="translate(1141.061220, 776.971113) rotate(1.550022) translate(-1141.061220, -776.971113) " points="1060.06653 765.190843 1222.05591 765.190843 1222.05591 788.751382 1060.06653 788.751382"></polygon>
                <polygon id="Rectangle" fill="#F4F4F4" transform="translate(1141.061220, 548.844291) rotate(1.550022) translate(-1141.061220, -548.844291) " points="1060.06653 537.064021 1222.05591 537.064021 1222.05591 560.62456 1060.06653 560.62456"></polygon>
                <polygon id="Rectangle" fill="#F4F4F4" transform="translate(1142.683990, 588.460815) rotate(1.550022) translate(-1142.683990, -588.460815) " points="1061.6893 576.680546 1223.67868 576.680546 1223.67868 600.241085 1061.6893 600.241085"></polygon>
                <polygon id="Rectangle" fill="#F4F4F4" transform="translate(1142.861345, 628.281534) rotate(1.550022) translate(-1142.861345, -628.281534) " points="1061.86666 616.501265 1223.85603 616.501265 1223.85603 640.061804 1061.86666 640.061804"></polygon>
                <polygon id="Rectangle" fill="#F4F4F4" transform="translate(1141.061220, 325.568311) rotate(1.550022) translate(-1141.061220, -325.568311) " points="1060.06653 313.788041 1222.05591 313.788041 1222.05591 337.34858 1060.06653 337.34858"></polygon>
                <polygon id="Rectangle" fill="#F4F4F4" transform="translate(1141.683990, 365.184437) rotate(1.550022) translate(-1141.683990, -365.184437) " points="1060.6893 353.404167 1222.67868 353.404167 1222.67868 376.964706 1060.6893 376.964706"></polygon>
                <polygon id="Rectangle" fill="#F4F4F4" transform="translate(1141.861345, 405.002362) rotate(1.550022) translate(-1141.861345, -405.002362) " points="1060.86666 393.222093 1222.85603 393.222093 1222.85603 416.782632 1060.86666 416.782632"></polygon>
            </g>
            <g id="Girl" transform="translate(438.000000, 178.000000)">
                <path d="M385,456.268366 C285.286171,318.325164 248.590151,236.19405 291.627959,62.633652 L282.513733,56.936077 C228.341154,210.675866 257.712661,302.566364 366.549,474 L365.978596,451.57891 L385,456.268366 Z" id="Path" fill="#FFA0BF" fill-rule="nonzero"></path>
                <path d="M221.069602,615 C303.560185,338.434546 64.5811562,316.502089 302.914461,45.495005 L310,48.435732 C112.948074,301.076963 328.473367,427.845043 251.339941,608.166789 L242.113282,587.623249 L221.069602,615 Z" id="Path" fill="#FFA0BF" fill-rule="nonzero"></path>
                <path d="M440.856604,526 L232.159922,518.549419 L210,361.854522 C210,361.854522 306.696745,361.854522 286.821062,237.967054 L334.023301,233 C340.590988,318.290491 344.047454,340.578039 414.718334,359.415128 C439.021988,398.758367 449.86108,433.772485 440.856604,526 Z" id="Path" fill="#F7C28C" fill-rule="nonzero"></path>
                <path d="M310.687129,266.769746 C294.067062,265.354138 236.264667,205.469165 248.751471,108 L363.244829,108 C375.019684,213.52782 324.103424,266.860947 312.965368,267.00025 C312.198045,267.007663 311.450497,266.837156 310.687129,266.769746 Z" id="Path" fill="#FFC487" fill-rule="nonzero"></path>
                <path d="M286.399559,160 C283.002203,157.748398 280.501653,155.255523 273,160 M315.501285,154.8048 C317.799853,152.552795 323.002938,149.819455 328,154.8048" id="Shape" stroke="#C56538" stroke-width="2"></path>
                <path d="M42.6090722,422.22693 L59.6159512,540.827285 L67.1311802,575 L122,563.267765 L70.2387092,410.359751 L74.9362302,371.543357 L68.8258302,330.051887 C66.8655102,324.415969 68.8741332,321.705172 64.7119772,320.657367 C61.9788002,319.966769 59.1007132,321.082046 57.5751252,323.419761 L60.2237712,349.785538 L50.6757672,342.311993 C50.6757672,342.311993 41.5101662,300.630013 40.1455912,294.418597 C38.7810152,288.20718 27.6228922,285.305873 28.9311142,291.259307 C30.2393352,297.212742 40.1455912,342.256428 40.1455912,342.256428 L37.2554272,342.875585 C37.2554272,342.875585 27.5222602,298.605846 25.8155342,290.842567 C24.1088082,283.075319 15.4463702,284.928822 17.5314732,294.418597 C19.6206022,303.91234 28.5929892,344.725119 28.5929892,344.725119 L25.7068512,345.344276 C25.7068512,345.344276 16.4647702,303.320966 15.4785722,298.832076 C14.4923742,294.347155 6.51021115,299.304382 8.27731615,307.329612 C10.0403962,315.354842 18.2922542,352.893231 18.2922542,352.893231 L15.4061172,353.508419 C15.4061172,353.508419 8.51883415,322.185416 7.26696715,316.489963 C6.01509915,310.794511 -2.02341785,315.493755 0.480316151,326.88466 C2.98405115,338.275565 9.87133415,369.598569 9.87133415,369.598569 L42.6090722,422.22693 Z" id="Path" fill="#F6C28C" fill-rule="nonzero"></path>
                <path d="M198,588.534422 L175.092537,609.338785 C135.395208,615 61.0000002,630.562952 42.2893172,577.282776 L23.0000002,513.993261 L100.097088,497 L198,588.534422 Z" id="Path" fill="#F54C48" fill-rule="nonzero"></path>
                <path d="M291,220 C300.455934,230.663794 312.272033,230.669539 317,220" id="Path" stroke="#FF3A00" stroke-width="3"></path>
                <ellipse id="Oval" fill="#723969" fill-rule="nonzero" cx="322" cy="177" rx="6" ry="9"></ellipse>
                <path d="M288,177.043301 C288,179.959123 284.214651,175.279675 280.073795,175.279675 C275.928898,175.279675 273,179.959123 273,177.043301 C273,174.127049 275.928898,170 280.073795,170 C284.214651,170 288,174.127049 288,177.043301 Z" id="Path" fill="#723969" fill-rule="nonzero"></path>
                <polygon id="Path" fill="#FFAF5B" fill-rule="nonzero" points="298 208 301.001212 196 307.003636 196 310 208"></polygon>
                <path d="M248.508027,160.551897 C245.27521,104.247503 349.904198,82.215366 364.74159,163 C384.526111,118.935726 364.74159,72.423349 347.430633,60.183229 C406.784197,21.014765 293.020203,-45.082041 302.914461,45.495005 C265.818984,62.990498 228.723506,89.55928 248.508027,160.551897 Z" id="Path" fill="#C56538" fill-rule="nonzero"></path>
                <path d="M218,131 C241.118866,103.00861 274.615157,74.642763 306.103045,99.627494 C308.572129,101.589421 310.68964,103.977961 312.649551,106.458995 C314.900418,109.303077 314.265973,113.474669 311.279634,115.512792 L308.907536,117.130822 C296.905608,125.319578 281.307142,121.343567 267.284687,117.648706 C252.041833,113.630727 236.661584,121.646719 218,131 Z" id="Path" fill="#C56538" fill-rule="nonzero"></path>
                <path d="M249.012361,188.317787 L243.44313,173.243205 C241.576662,168.19054 245.839796,163 251.853013,163 L261,196 C255.542844,196 250.706407,192.899692 249.012361,188.317787 Z" id="Path" fill="#FFC487" fill-rule="nonzero"></path>
                <path d="M362.987451,188.317787 L368.556594,173.243205 C370.423032,168.19054 366.164276,163 360.146843,163 L351,196 C356.45707,196 361.293431,192.899692 362.987451,188.317787 Z" id="Path" fill="#FFC487" fill-rule="nonzero"></path>
                <path d="M357.8,204 L353,133 L365,152.586466 C360.126333,154.177562 360.762197,176.0134 357.8,204 Z" id="Path" fill="#C56538" fill-rule="nonzero"></path>
                <path d="M268.597607,334.836448 L247.752277,374.034972 L321.696247,464.691446 L380.853018,374.034972 L357.49588,331.158831 C435.996811,353.779064 489.303111,417.770115 508.910403,498.616165 L509.026021,498.368305 L509.592153,501.494529 C511.302509,508.946293 512.677969,516.529983 513.698601,524.221611 L530.521153,617 L77.6207372,617 L114.356509,518.844667 C143.6,436.739333 188.609584,354.849074 268.597607,334.836448 Z" id="Path" fill="#F54C48" fill-rule="nonzero"></path>
            </g>
            <path d="M0,597 C250,710.396759 500,767.095139 750,767.095139 C1000,767.095139 1250,710.396759 1500,597 L1500,802 L0,802 L0,597 Z" id="Curve" fill="#FAFAFB" fill-rule="nonzero"></path>
        </g>
    </g>
</svg>